<?xml version="1.0" standalone="no"?>
<!DOCTYPE svg PUBLIC "-//W3C//DTD SVG 20010904//EN"
 "http://www.w3.org/TR/2001/REC-SVG-20010904/DTD/svg10.dtd">
<svg version="1.0" xmlns="http://www.w3.org/2000/svg"
 width="512.000000pt" height="512.000000pt" viewBox="0 0 512.000000 512.000000"
 preserveAspectRatio="xMidYMid meet">

<g transform="translate(0.000000,512.000000) scale(0.100000,-0.100000)"
fill="#000000" stroke="none">
<path d="M2022 4494 c-34 -24 -45 -59 -28 -97 30 -72 2149 -3744 2172 -3764
32 -29 66 -29 97 -1 35 32 508 901 524 962 18 68 16 131 -5 191 -10 28 -328
619 -707 1315 -538 986 -699 1275 -733 1308 -24 24 -69 56 -100 70 l-57 27
-570 3 c-514 2 -572 1 -593 -14z"/>
<path d="M1633 3948 c-35 -39 -1044 -1701 -1050 -1730 -4 -21 1 -34 25 -58
l30 -30 1052 0 1052 0 30 30 c24 24 29 37 25 58 -6 29 -1015 1691 -1050 1730
-14 15 -32 22 -57 22 -25 0 -43 -7 -57 -22z"/>
<path d="M343 1734 c-20 -20 -24 -32 -20 -57 7 -44 499 -923 540 -965 17 -18
61 -48 97 -65 l65 -32 1266 -3 1266 -2 26 21 c53 41 50 48 -259 591 -157 277
-295 511 -306 521 -19 16 -97 17 -1335 17 l-1314 0 -26 -26z"/>
</g>
</svg>
