<?xml version="1.0" standalone="no"?>
<!DOCTYPE svg PUBLIC "-//W3C//DTD SVG 20010904//EN"
 "http://www.w3.org/TR/2001/REC-SVG-20010904/DTD/svg10.dtd">
<svg version="1.0" xmlns="http://www.w3.org/2000/svg"
 width="512.000000pt" height="512.000000pt" viewBox="0 0 512.000000 512.000000"
 preserveAspectRatio="xMidYMid meet">

<g transform="translate(0.000000,512.000000) scale(0.100000,-0.100000)"
fill="#000000" stroke="none">
<path d="M1405 4681 c-119 -31 -179 -124 -225 -351 -25 -122 -29 -304 -10
-432 14 -95 14 -96 -75 -253 -125 -222 -173 -454 -155 -757 17 -275 61 -460
159 -663 154 -320 403 -530 776 -655 73 -24 119 -45 119 -52 -1 -7 -9 -40 -18
-73 -9 -33 -19 -104 -23 -157 l-6 -97 -65 -7 c-100 -10 -248 2 -322 26 -142
47 -242 117 -430 300 -69 67 -152 142 -186 166 -72 51 -201 118 -261 133 -78
21 -166 -14 -217 -87 -40 -57 -48 -149 -18 -208 26 -50 67 -89 117 -110 85
-35 182 -109 309 -237 281 -284 564 -408 939 -410 l147 -2 0 -78 c0 -117 36
-184 124 -229 31 -16 53 -19 102 -16 81 5 137 41 173 113 l26 49 2 362 c2 434
5 450 108 584 86 111 86 207 2 294 -48 50 -62 55 -262 90 -303 54 -510 156
-644 318 -148 179 -233 494 -218 813 7 147 38 263 104 385 129 235 139 273
127 445 -9 138 -11 351 -2 360 7 7 136 -43 231 -91 39 -20 116 -66 170 -102
122 -81 149 -85 304 -48 223 53 464 73 672 56 135 -11 304 -39 395 -66 62 -18
127 -18 169 0 18 7 70 39 117 70 122 81 363 196 379 180 3 -3 4 -72 3 -152
-10 -432 -13 -415 92 -601 114 -201 146 -354 126 -605 -25 -329 -104 -533
-269 -696 -147 -146 -310 -217 -614 -268 -197 -34 -230 -50 -272 -137 -24 -47
-27 -64 -22 -111 4 -37 15 -69 31 -93 14 -20 42 -58 61 -86 70 -99 75 -133 75
-529 0 -201 4 -366 10 -387 14 -52 73 -115 125 -135 99 -37 205 4 254 101 l26
49 0 386 c0 389 -2 417 -40 541 -4 12 16 21 92 43 550 159 868 549 949 1166
24 189 16 481 -18 610 -35 130 -83 249 -140 344 -64 106 -68 122 -51 241 32
223 -21 555 -108 674 -113 157 -466 101 -856 -136 l-73 -44 -98 20 c-183 37
-283 46 -512 46 -227 0 -317 -9 -505 -46 l-100 -20 -110 66 c-127 75 -285 144
-400 175 -87 22 -242 34 -290 21z"/>
</g>
</svg>
