<?xml version="1.0" standalone="no"?>
<!DOCTYPE svg PUBLIC "-//W3C//DTD SVG 20010904//EN"
 "http://www.w3.org/TR/2001/REC-SVG-20010904/DTD/svg10.dtd">
<svg version="1.0" xmlns="http://www.w3.org/2000/svg"
 width="512.000000pt" height="512.000000pt" viewBox="0 0 512.000000 512.000000"
 preserveAspectRatio="xMidYMid meet">

<g transform="translate(0.000000,512.000000) scale(0.100000,-0.100000)"
fill="#000000" stroke="none">
<path d="M745 4790 c-245 -53 -415 -264 -415 -513 0 -227 164 -436 388 -497
69 -18 208 -14 283 9 213 66 359 265 359 491 0 226 -135 417 -348 491 -64 23
-205 33 -267 19z"/>
<path d="M3420 3401 c-112 -24 -197 -61 -297 -127 -74 -50 -123 -97 -262 -254
l-30 -35 -1 133 c0 153 -11 188 -69 228 l-36 24 -365 0 c-347 0 -367 -1 -398
-20 -18 -11 -41 -34 -52 -52 -20 -33 -20 -54 -20 -1413 l0 -1380 25 -38 c46
-68 43 -67 445 -67 401 0 395 -1 447 67 l28 36 5 866 c6 967 1 908 78 1027
261 402 874 268 942 -207 5 -35 10 -428 10 -874 0 -790 1 -811 20 -843 11 -18
34 -41 52 -52 31 -19 51 -20 383 -20 395 0 399 1 443 76 l22 39 -3 1015 -3
1015 -27 94 c-33 113 -89 236 -146 320 -139 204 -365 364 -607 427 -87 23
-123 27 -299 30 -168 3 -214 1 -285 -15z"/>
<path d="M465 3361 c-34 -14 -74 -62 -85 -100 -8 -24 -10 -485 -8 -1438 3
-1398 3 -1402 24 -1429 11 -15 33 -37 48 -48 27 -20 39 -21 401 -21 362 0 374
1 401 21 15 11 37 33 48 48 21 27 21 31 24 1442 2 1392 2 1415 -18 1453 -10
22 -35 48 -53 60 -33 20 -45 21 -398 20 -200 0 -373 -4 -384 -8z"/>
</g>
</svg>
