<?xml version="1.0" standalone="no"?>
<!DOCTYPE svg PUBLIC "-//W3C//DTD SVG 20010904//EN"
 "http://www.w3.org/TR/2001/REC-SVG-20010904/DTD/svg10.dtd">
<svg version="1.0" xmlns="http://www.w3.org/2000/svg"
 width="512.000000pt" height="512.000000pt" viewBox="0 0 512.000000 512.000000"
 preserveAspectRatio="xMidYMid meet">

<g transform="translate(0.000000,512.000000) scale(0.100000,-0.100000)"
fill="#000000" stroke="none">
<path d="M2503 5110 c-1078 -105 -1979 -874 -2243 -1915 -62 -243 -75 -354
-75 -635 0 -281 13 -392 75 -635 212 -835 845 -1517 1666 -1791 147 -49 295
-85 464 -110 161 -25 528 -25 695 -1 585 87 1081 337 1480 748 156 161 321
376 363 472 39 91 -17 200 -119 227 -31 9 -52 8 -97 -5 -299 -81 -385 -95
-612 -95 -508 0 -959 188 -1321 549 -297 298 -473 650 -534 1071 -25 168 -16
459 19 626 96 457 343 846 713 1125 107 81 134 114 140 174 10 85 -41 161
-124 185 -50 15 -373 21 -490 10z"/>
</g>
</svg>
